<?xml version="1.0" encoding="UTF-8" standalone="no"?><!-- Generator: Gravit.io --><svg xmlns="http://www.w3.org/2000/svg" xmlns:xlink="http://www.w3.org/1999/xlink" style="isolation:isolate" viewBox="1041 406 400 400" width="400pt" height="400pt"><defs><clipPath id="_clipPath_TDSH8jxCcCGqH06zG1Tg6vqakW8e5CJs"><rect x="1041" y="406" width="400" height="400"/></clipPath></defs><g clip-path="url(#_clipPath_TDSH8jxCcCGqH06zG1Tg6vqakW8e5CJs)"><rect x="1041" y="406" width="400" height="400" transform="matrix(1,0,0,1,0,0)" fill="rgb(13,13,13)"/><g><path d=" M 1234.909 670.946 L 1167.798 632.199 C 1164.674 630.395 1162.138 626.003 1162.138 622.395 L 1162.138 544.903 C 1162.138 541.295 1164.674 536.903 1167.798 535.099 L 1234.909 496.353 C 1238.033 494.549 1243.105 494.549 1246.229 496.353 L 1313.34 535.099 C 1316.464 536.903 1319 541.295 1319 544.903 L 1319 622.395 C 1319 626.003 1316.464 630.395 1313.34 632.199 L 1246.229 670.946 C 1243.105 672.749 1238.033 672.749 1234.909 670.946 Z " fill="rgb(245,245,245)"/><path d=" M 1193.942 550.193 L 1234.909 526.541 C 1238.033 524.737 1243.105 524.737 1246.229 526.541 L 1287.196 550.193 C 1290.32 551.997 1292.856 556.389 1292.856 559.997 L 1292.856 607.301 C 1292.856 610.909 1290.32 615.301 1287.196 617.105 L 1246.229 640.757 C 1243.105 642.561 1238.033 642.561 1234.909 640.757 L 1193.942 617.105 C 1190.818 615.301 1188.282 610.909 1188.282 607.301 L 1188.282 559.997 C 1188.282 556.389 1190.818 551.997 1193.942 550.193 Z " fill="rgb(13,13,13)"/><path d=" M 1162.138 650.561 L 1162.138 712.96 C 1162.138 716.568 1164.674 718.032 1167.798 716.228 L 1221.837 685.029 C 1224.961 683.225 1224.961 680.296 1221.837 678.493 L 1167.798 647.293 C 1164.674 645.489 1162.138 646.954 1162.138 650.561 Z " fill="rgb(245,245,245)"/><path d=" M 1207.014 609.559 L 1228.373 621.89 C 1231.497 623.693 1234.033 622.229 1234.033 618.622 L 1234.033 593.959 C 1234.033 590.351 1231.497 585.959 1228.373 584.155 L 1207.014 571.823 C 1203.889 570.019 1201.354 571.483 1201.354 575.091 L 1201.354 599.755 C 1201.354 603.362 1203.889 607.755 1207.014 609.559 Z " fill="rgb(245,245,245)"/><path d=" M 1252.765 584.155 L 1274.124 571.823 C 1277.249 570.019 1279.784 571.483 1279.784 575.091 L 1279.784 599.755 C 1279.784 603.362 1277.249 607.755 1274.124 609.559 L 1252.765 621.89 C 1249.641 623.693 1247.105 622.229 1247.105 618.622 L 1247.105 593.959 C 1247.105 590.351 1249.641 585.959 1252.765 584.155 Z " fill="rgb(245,245,245)"/><path d=" M 1213.55 560.503 L 1234.909 572.835 C 1238.033 574.638 1243.105 574.638 1246.229 572.835 L 1267.588 560.503 C 1270.713 558.699 1270.713 555.771 1267.588 553.967 L 1246.229 541.635 C 1243.105 539.831 1238.033 539.831 1234.909 541.635 L 1213.55 553.967 C 1210.425 555.771 1210.425 558.699 1213.55 560.503 Z " fill="rgb(245,245,245)"/></g></g></svg>